<svg xmlns="http://www.w3.org/2000/svg" viewBox="0 0 256 256" xml:space="preserve"><path d="M252 256H4c-2.2 0-4-1.8-4-4V4c0-2.2 1.8-4 4-4h248c2.2 0 4 1.8 4 4v248c0 2.2-1.8 4-4 4z" fill="#f0f1f7" stroke="#fff" stroke-miterlimit="10"/><path d="M156.4 214.4c.3 1.8-.6 2.8-2.8 2.8h-39.5c-2.1 0-4.1-1.2-5.1-3.1L8.6 42.6c-.3-.5-.5-1.1-.6-1.7-.3-1.8.6-2.6 2.8-2.6h39.3c2.2-.1 4.2 1.1 5.1 3.1L155.8 213c.3.4.5.9.6 1.4z" fill="#fb1c90"/><path d="m247.5 213.2-32-67.6c-.3-.6-.1-1.4.5-1.7.1 0 .2-.1.3-.1 9.3-3.7 17.1-10.2 22.5-18.5 5.6-8.8 8.4-19.1 8.2-29.6.2-10.4-2.3-20.6-7.2-29.8-4.7-8.5-11.6-15.5-20.1-20.1-9.3-4.9-19.6-7.3-30.1-7h-76.3c-1-.1-2 .2-2.8.8-.7.8-1.1 1.8-1 2.8v71.2l35.9 60.9H157v-24.4c-.1-.6.3-1.2.9-1.3h10.8c.7 0 1.2.4 1.5 1l27.9 65c.6 1.8 2.3 3 4.3 2.8h42.1c.9 0 1.8-.2 2.5-.8.7-.5 1-1.2 1-2.1-.1-.4-.3-1-.5-1.5zm-52.6-105.4c-3.6 3.1-8.3 4.7-13.1 4.5h-23.7c-.6.1-1.2-.3-1.3-.9V81.1c-.1-.6.3-1.2.9-1.3h24c4.8-.2 9.5 1.4 13.1 4.5 3.4 3 5.2 7.4 5 11.9.3 4.4-1.6 8.7-4.9 11.6z" fill="#27272a"/><path d="M129 183.3c-1.2 0-2.2.7-2.8 1.7l-14.8 27.6c-.3.5-.5 1.1-.5 1.7-.3 2.1.6 3.1 2.8 3.1h40c2.3 0 4.3-1.4 5.2-3.5l13.9-25.9c.8-1.6.3-3.5-1.3-4.4-.5-.2-1-.4-1.5-.4l-41 .1z" opacity=".8" fill="#c41771"/></svg>
